<mxfile host="app.diagrams.net" modified="2023-08-16T12:22:04.203Z" agent="Mozilla/5.0 (Windows NT 10.0; Win64; x64) AppleWebKit/537.36 (KHTML, like Gecko) Chrome/115.0.0.0 Safari/537.36" etag="_p6Ei6C5gMzFApUaTfcG" version="21.6.7" type="github">
  <diagram name="第 1 页" id="80tG6JO-mC-Tp9KeBumF">
    <mxGraphModel dx="1050" dy="1799" grid="1" gridSize="10" guides="1" tooltips="1" connect="1" arrows="1" fold="1" page="1" pageScale="1" pageWidth="827" pageHeight="1169" math="0" shadow="0">
      <root>
        <mxCell id="0" />
        <mxCell id="1" parent="0" />
        <mxCell id="PXQuVvHRLlcOAFRK3g8A-17" value="" style="rounded=0;whiteSpace=wrap;html=1;dashed=1;" vertex="1" parent="1">
          <mxGeometry x="560" y="250" width="460" height="460" as="geometry" />
        </mxCell>
        <mxCell id="PXQuVvHRLlcOAFRK3g8A-16" style="edgeStyle=orthogonalEdgeStyle;rounded=0;orthogonalLoop=1;jettySize=auto;html=1;exitX=0.5;exitY=1;exitDx=0;exitDy=0;entryX=0.5;entryY=0;entryDx=0;entryDy=0;" edge="1" parent="1" source="PXQuVvHRLlcOAFRK3g8A-13" target="5UkGeeMsDtwPfgDZ-Mkb-26">
          <mxGeometry relative="1" as="geometry" />
        </mxCell>
        <mxCell id="PXQuVvHRLlcOAFRK3g8A-13" value="" style="rounded=0;whiteSpace=wrap;html=1;fillColor=#E3E3E3;" vertex="1" parent="1">
          <mxGeometry x="620" y="418.75" width="340" height="190" as="geometry" />
        </mxCell>
        <mxCell id="PXQuVvHRLlcOAFRK3g8A-14" style="edgeStyle=orthogonalEdgeStyle;rounded=0;orthogonalLoop=1;jettySize=auto;html=1;exitX=0.5;exitY=1;exitDx=0;exitDy=0;entryX=0.5;entryY=0;entryDx=0;entryDy=0;" edge="1" parent="1" source="5UkGeeMsDtwPfgDZ-Mkb-9" target="5UkGeeMsDtwPfgDZ-Mkb-10">
          <mxGeometry relative="1" as="geometry" />
        </mxCell>
        <mxCell id="5UkGeeMsDtwPfgDZ-Mkb-9" value="&lt;font style=&quot;font-size: 14px;&quot;&gt;获取元数据&lt;/font&gt;" style="rounded=0;whiteSpace=wrap;html=1;fillColor=#d5e8d4;strokeColor=#82b366;" parent="1" vertex="1">
          <mxGeometry x="750" y="270" width="80" height="40" as="geometry" />
        </mxCell>
        <mxCell id="PXQuVvHRLlcOAFRK3g8A-15" style="edgeStyle=orthogonalEdgeStyle;rounded=0;orthogonalLoop=1;jettySize=auto;html=1;exitX=0.5;exitY=1;exitDx=0;exitDy=0;" edge="1" parent="1" source="5UkGeeMsDtwPfgDZ-Mkb-10" target="PXQuVvHRLlcOAFRK3g8A-13">
          <mxGeometry relative="1" as="geometry" />
        </mxCell>
        <mxCell id="5UkGeeMsDtwPfgDZ-Mkb-10" value="调用c++库线性化处理" style="rounded=0;whiteSpace=wrap;html=1;fillColor=#d5e8d4;strokeColor=#82b366;" parent="1" vertex="1">
          <mxGeometry x="725" y="340" width="130" height="40" as="geometry" />
        </mxCell>
        <mxCell id="5UkGeeMsDtwPfgDZ-Mkb-12" value="非线性化全本文件" style="rounded=0;whiteSpace=wrap;html=1;fillColor=#d5e8d4;strokeColor=#82b366;" parent="1" vertex="1">
          <mxGeometry x="650" y="430" width="120" height="40" as="geometry" />
        </mxCell>
        <mxCell id="5UkGeeMsDtwPfgDZ-Mkb-13" value="线性化全本文件" style="rounded=0;whiteSpace=wrap;html=1;fillColor=#d5e8d4;strokeColor=#82b366;" parent="1" vertex="1">
          <mxGeometry x="810" y="432.5" width="120" height="37.5" as="geometry" />
        </mxCell>
        <mxCell id="5UkGeeMsDtwPfgDZ-Mkb-14" value="非线性化试读文件" style="rounded=0;whiteSpace=wrap;html=1;fillColor=#d5e8d4;strokeColor=#82b366;" parent="1" vertex="1">
          <mxGeometry x="650" y="495" width="120" height="37.5" as="geometry" />
        </mxCell>
        <mxCell id="5UkGeeMsDtwPfgDZ-Mkb-15" value="线性化试读文件" style="rounded=0;whiteSpace=wrap;html=1;fillColor=#d5e8d4;strokeColor=#82b366;" parent="1" vertex="1">
          <mxGeometry x="810" y="495" width="120" height="37.5" as="geometry" />
        </mxCell>
        <mxCell id="5UkGeeMsDtwPfgDZ-Mkb-16" value="非线性化目标文件" style="rounded=0;whiteSpace=wrap;html=1;fillColor=#d5e8d4;strokeColor=#82b366;" parent="1" vertex="1">
          <mxGeometry x="650" y="553.75" width="120" height="37.5" as="geometry" />
        </mxCell>
        <mxCell id="5UkGeeMsDtwPfgDZ-Mkb-17" value="线性化目标文件" style="rounded=0;whiteSpace=wrap;html=1;fillColor=#d5e8d4;strokeColor=#82b366;" parent="1" vertex="1">
          <mxGeometry x="810" y="553.75" width="120" height="37.5" as="geometry" />
        </mxCell>
        <mxCell id="PXQuVvHRLlcOAFRK3g8A-18" style="edgeStyle=orthogonalEdgeStyle;rounded=0;orthogonalLoop=1;jettySize=auto;html=1;exitX=0;exitY=0.5;exitDx=0;exitDy=0;entryX=0;entryY=0.5;entryDx=0;entryDy=0;entryPerimeter=0;" edge="1" parent="1" source="5UkGeeMsDtwPfgDZ-Mkb-26" target="PXQuVvHRLlcOAFRK3g8A-2">
          <mxGeometry relative="1" as="geometry">
            <Array as="points">
              <mxPoint x="530" y="658" />
              <mxPoint x="530" y="160" />
            </Array>
          </mxGeometry>
        </mxCell>
        <mxCell id="5UkGeeMsDtwPfgDZ-Mkb-26" value="获取url" style="rounded=0;whiteSpace=wrap;html=1;fillColor=#d5e8d4;strokeColor=#82b366;" parent="1" vertex="1">
          <mxGeometry x="730" y="640" width="120" height="35" as="geometry" />
        </mxCell>
        <mxCell id="5UkGeeMsDtwPfgDZ-Mkb-50" value="&lt;b&gt;&lt;font style=&quot;font-size: 14px;&quot;&gt;图书上传任务&lt;/font&gt;&lt;/b&gt;" style="text;html=1;align=center;verticalAlign=middle;resizable=0;points=[];autosize=1;strokeColor=none;fillColor=none;" parent="1" vertex="1">
          <mxGeometry x="560" y="250" width="110" height="30" as="geometry" />
        </mxCell>
        <mxCell id="5UkGeeMsDtwPfgDZ-Mkb-54" value="运营" style="text;html=1;align=center;verticalAlign=middle;resizable=0;points=[];autosize=1;strokeColor=none;fillColor=none;" parent="1" vertex="1">
          <mxGeometry x="30" y="557.5" width="50" height="30" as="geometry" />
        </mxCell>
        <mxCell id="PXQuVvHRLlcOAFRK3g8A-10" style="edgeStyle=orthogonalEdgeStyle;rounded=0;orthogonalLoop=1;jettySize=auto;html=1;exitX=0.5;exitY=1;exitDx=0;exitDy=0;exitPerimeter=0;entryX=0.5;entryY=0;entryDx=0;entryDy=0;" edge="1" parent="1" source="PXQuVvHRLlcOAFRK3g8A-2" target="5UkGeeMsDtwPfgDZ-Mkb-9">
          <mxGeometry relative="1" as="geometry" />
        </mxCell>
        <mxCell id="PXQuVvHRLlcOAFRK3g8A-2" value="&lt;font style=&quot;font-size: 14px;&quot;&gt;&lt;b&gt;Mysql&lt;/b&gt;&lt;/font&gt;" style="shape=cylinder3;whiteSpace=wrap;html=1;boundedLbl=1;backgroundOutline=1;size=15;fillColor=#f8cecc;strokeColor=#b85450;" vertex="1" parent="1">
          <mxGeometry x="660" y="120" width="60" height="80" as="geometry" />
        </mxCell>
        <mxCell id="PXQuVvHRLlcOAFRK3g8A-4" style="edgeStyle=orthogonalEdgeStyle;rounded=0;orthogonalLoop=1;jettySize=auto;html=1;exitX=0.5;exitY=1;exitDx=0;exitDy=0;" edge="1" parent="1" source="PXQuVvHRLlcOAFRK3g8A-3" target="PXQuVvHRLlcOAFRK3g8A-1">
          <mxGeometry relative="1" as="geometry" />
        </mxCell>
        <mxCell id="PXQuVvHRLlcOAFRK3g8A-7" value="文件内容" style="edgeLabel;html=1;align=center;verticalAlign=middle;resizable=0;points=[];" vertex="1" connectable="0" parent="PXQuVvHRLlcOAFRK3g8A-4">
          <mxGeometry x="0.1754" y="-2" relative="1" as="geometry">
            <mxPoint y="-12" as="offset" />
          </mxGeometry>
        </mxCell>
        <mxCell id="PXQuVvHRLlcOAFRK3g8A-5" style="edgeStyle=orthogonalEdgeStyle;rounded=0;orthogonalLoop=1;jettySize=auto;html=1;exitX=0.5;exitY=1;exitDx=0;exitDy=0;" edge="1" parent="1" source="PXQuVvHRLlcOAFRK3g8A-3" target="PXQuVvHRLlcOAFRK3g8A-2">
          <mxGeometry relative="1" as="geometry" />
        </mxCell>
        <mxCell id="PXQuVvHRLlcOAFRK3g8A-6" value="CMS" style="edgeLabel;html=1;align=center;verticalAlign=middle;resizable=0;points=[];" vertex="1" connectable="0" parent="PXQuVvHRLlcOAFRK3g8A-5">
          <mxGeometry x="-0.7914" y="1" relative="1" as="geometry">
            <mxPoint as="offset" />
          </mxGeometry>
        </mxCell>
        <mxCell id="PXQuVvHRLlcOAFRK3g8A-9" value="资源路径" style="edgeLabel;html=1;align=center;verticalAlign=middle;resizable=0;points=[];" vertex="1" connectable="0" parent="PXQuVvHRLlcOAFRK3g8A-5">
          <mxGeometry x="0.1358" y="1" relative="1" as="geometry">
            <mxPoint y="-11" as="offset" />
          </mxGeometry>
        </mxCell>
        <mxCell id="PXQuVvHRLlcOAFRK3g8A-3" value="" style="shape=actor;whiteSpace=wrap;html=1;fillColor=#ffe6cc;strokeColor=#d79b00;" vertex="1" parent="1">
          <mxGeometry x="770" y="-20" width="40" height="60" as="geometry" />
        </mxCell>
        <mxCell id="PXQuVvHRLlcOAFRK3g8A-11" style="edgeStyle=orthogonalEdgeStyle;rounded=0;orthogonalLoop=1;jettySize=auto;html=1;exitX=0.5;exitY=1;exitDx=0;exitDy=0;" edge="1" parent="1" source="PXQuVvHRLlcOAFRK3g8A-1">
          <mxGeometry relative="1" as="geometry">
            <mxPoint x="790" y="270" as="targetPoint" />
          </mxGeometry>
        </mxCell>
        <mxCell id="PXQuVvHRLlcOAFRK3g8A-1" value="&lt;font style=&quot;font-size: 14px;&quot;&gt;存储资源文件&lt;/font&gt;" style="rounded=0;whiteSpace=wrap;html=1;fillColor=#dae8fc;strokeColor=#6c8ebf;" vertex="1" parent="1">
          <mxGeometry x="827" y="120" width="160" height="80" as="geometry" />
        </mxCell>
        <mxCell id="5UkGeeMsDtwPfgDZ-Mkb-43" value="&lt;font style=&quot;font-size: 14px;&quot;&gt;&lt;b&gt;单物理机&lt;/b&gt;&lt;/font&gt;" style="text;html=1;align=center;verticalAlign=middle;resizable=0;points=[];autosize=1;strokeColor=none;fillColor=none;" parent="1" vertex="1">
          <mxGeometry x="827" y="120" width="80" height="30" as="geometry" />
        </mxCell>
      </root>
    </mxGraphModel>
  </diagram>
</mxfile>
